# Blender v2.77 (sub 0) OBJ File: 'missile_module.blend'
# www.blender.org
mtllib missile_module.mtl
o Cylinder
v -0.433013 5.038427 0.250000
v -0.433013 3.038427 -0.250000
v -0.433013 5.038427 -0.250000
v -0.250000 3.038427 -0.433013
v -0.250000 5.038427 -0.433013
v 1.050228 0.525107 -1.050228
v 0.434627 0.519920 -0.251614
v 1.048613 0.965188 -1.048613
v 0.251615 0.519920 -0.434627
v -0.270451 5.736112 -0.156145
v -0.156145 5.736112 -0.270451
v 0.000000 3.038427 -0.500000
v 0.000000 5.038427 -0.500000
v -0.433013 3.038427 0.250000
v 0.000000 3.038427 0.500000
v 0.250000 3.038427 0.433013
v 0.250000 5.038427 0.433013
v 0.433013 3.038427 0.250000
v 0.433013 5.038427 0.250000
v 0.433013 3.038427 -0.250000
v 0.433013 5.038427 -0.250000
v -0.433013 0.960000 -0.250000
v -0.250000 0.960000 0.433013
v 0.250000 0.960000 0.433013
v 0.433012 0.960000 0.250000
v 0.433013 0.960000 -0.250000
v -0.250000 0.523106 -0.433013
v -0.433013 0.523106 -0.250000
v -0.433013 0.523106 0.250000
v -0.250000 0.523106 0.433013
v 0.250000 0.523106 0.433013
v 0.433012 0.523106 0.250000
v 0.433013 0.523106 -0.250000
v 0.000000 0.021685 -0.346776
v -0.173388 0.021685 -0.300317
v -0.300317 0.021685 0.173388
v -0.173388 0.021685 0.300317
v 0.000000 0.021685 0.346776
v 0.173388 0.021685 0.300317
v 0.300316 0.021685 0.173388
v 0.300317 0.021685 -0.173388
v -1.050228 0.525107 -1.050228
v -0.434627 0.519920 -0.251614
v -1.048613 0.965188 -1.048613
v -0.251615 0.519920 -0.434627
v 0.000000 5.736112 -0.312290
v -0.270451 5.736112 0.156145
v -0.156145 5.736112 0.270451
v 0.000000 5.736112 0.312290
v 0.156145 5.736112 0.270451
v 0.270451 5.736112 0.156145
v 0.270451 5.736112 -0.156145
v 0.500000 3.038427 0.000000
v 0.500000 5.038427 0.000000
v -0.500000 3.038427 0.000000
v -0.250000 3.038427 0.433013
v -0.250000 5.038427 0.433013
v 1.050228 0.525107 1.050228
v 0.434627 0.519920 0.251614
v 1.048613 0.965188 1.048613
v 0.251615 0.519920 0.434627
v 0.000000 5.038427 0.500000
v -0.500000 5.038427 0.000000
v 0.250000 3.038427 -0.433013
v 0.250000 5.038427 -0.433013
v 0.000000 0.960000 0.500000
v -0.433013 0.960000 0.250000
v -0.500000 0.960000 0.000000
v -0.250000 0.960000 -0.433013
v 0.000000 0.960000 -0.500000
v 0.250000 0.960000 -0.433013
v 0.500000 0.960000 0.000000
v 0.000000 0.523106 0.500000
v -0.500000 0.523106 0.000000
v 0.000000 0.523106 -0.500000
v 0.250000 0.523106 -0.433013
v 0.500000 0.523106 0.000000
v -0.346776 0.021685 0.000000
v -0.300317 0.021685 -0.173388
v 0.173388 0.021685 -0.300317
v 0.346776 0.021685 0.000000
v -1.050228 0.525107 1.050228
v -0.434627 0.519920 0.251614
v -1.048613 0.965188 1.048613
v -0.251615 0.519920 0.434627
v -0.312290 5.736112 0.000000
v 0.156145 5.736112 -0.270451
v 0.312290 5.736112 0.000000
v -0.000000 0.021685 -0.288900
v -0.144450 0.021685 -0.250195
v -0.288900 0.021685 0.000000
v -0.250195 0.021685 0.144450
v -0.144450 0.021685 0.250195
v -0.000000 0.021685 0.288900
v 0.144450 0.021685 0.250195
v 0.250194 0.021685 0.144450
v 0.288900 0.021685 0.000000
v 0.250194 0.021685 -0.144450
v -0.250195 0.021685 -0.144450
v 0.144450 0.021685 -0.250195
v -0.000000 2.422985 -0.288900
v -0.144450 2.422985 -0.250195
v -0.288900 2.422985 0.000000
v -0.250195 2.422985 0.144450
v -0.144450 2.422985 0.250195
v -0.000000 2.422985 0.288900
v 0.144450 2.422985 0.250195
v 0.250194 2.422985 0.144450
v 0.288900 2.422985 0.000000
v 0.250194 2.422985 -0.144450
v -0.250195 2.422985 -0.144450
v 0.144450 2.422985 -0.250195
vt 0.4306 0.4981
vt 0.3888 0.2996
vt 0.4306 0.2995
vt 0.3888 0.4982
vt 0.3362 0.2997
vt 0.3362 0.4982
vt 0.2870 0.2996
vt 0.4306 0.0693
vt 0.4723 0.2677
vt 0.4306 0.2678
vt 0.5249 0.0691
vt 0.5741 0.2677
vt 0.5249 0.2676
vt 0.2870 0.4981
vt 0.2453 0.2996
vt 0.2870 0.2995
vt 0.2453 0.4982
vt 0.1927 0.2997
vt 0.1927 0.4982
vt 0.1435 0.2996
vt 0.1435 0.4981
vt 0.1017 0.2996
vt 0.1435 0.2995
vt 0.4723 0.0691
vt 0.4613 0.0001
vt 0.4874 0.0000
vt 0.1017 0.4982
vt 0.0492 0.2997
vt 0.0492 0.4982
vt 0.0000 0.2996
vt 0.1435 0.0932
vt 0.1927 0.0934
vt 0.2453 0.0933
vt 0.2870 0.0932
vt 0.5249 0.4740
vt 0.4306 0.4741
vt 0.0492 0.0934
vt 0.3888 0.0933
vt 0.4306 0.0932
vt 0.3362 0.0934
vt 0.1017 0.0933
vt 0.3911 0.0946
vt 0.2870 0.0498
vt 0.1017 0.0500
vt 0.2453 0.0500
vt 0.0000 0.0933
vt 0.0492 0.0500
vt 0.3888 0.0500
vt 0.1435 0.0933
vt 0.1927 0.0500
vt 0.5741 0.4740
vt 0.5249 0.5173
vt 0.4306 0.8545
vt 0.4420 0.8871
vt 0.4306 0.8901
vt 0.1184 0.0000
vt 0.1435 0.0498
vt 0.2330 0.0001
vt 0.2619 0.0000
vt 0.0894 0.0001
vt 0.4055 0.0000
vt 0.4306 0.0498
vt 0.0000 0.0499
vt 0.0530 0.0001
vt 0.3362 0.0500
vt 0.3765 0.0001
vt 0.5741 0.5174
vt 0.5211 0.5672
vt 0.7808 0.4563
vt 0.5744 0.5000
vt 0.5741 0.4563
vt 0.5745 0.9563
vt 0.7733 1.0000
vt 0.5741 1.0000
vt 0.7734 0.7500
vt 0.7737 0.9563
vt 0.5746 0.2500
vt 1.0000 0.4601
vt 0.9469 0.4601
vt 0.9735 0.2615
vt 0.2139 0.8173
vt 0.1688 0.8682
vt 0.1688 0.8174
vt 0.0453 0.8173
vt 0.1237 0.8933
vt 0.0166 0.9210
vt 0.0231 0.5673
vt 0.0000 0.4981
vt 0.3737 0.5673
vt 0.3102 0.5673
vt 0.2870 0.4981
vt 0.0867 0.5673
vt 0.0539 0.5673
vt 0.3409 0.5673
vt 0.1974 0.5673
vt 0.1667 0.5673
vt 0.2302 0.5673
vt 0.5509 0.0000
vt 0.5741 0.0692
vt 0.2870 0.0499
vt 0.2870 0.0933
vt 0.4723 0.4740
vt 0.1041 0.0946
vt 0.4723 0.5174
vt 0.3059 0.0001
vt 0.1624 0.0001
vt 0.1435 0.0499
vt 0.1965 0.0001
vt 0.4846 0.5672
vt 0.4306 0.5175
vt 0.9804 0.2500
vt 0.7815 0.2063
vt 0.9808 0.2063
vt 0.7808 0.7063
vt 0.5744 0.7500
vt 0.5741 0.7063
vt 0.5746 0.5000
vt 0.9804 0.0000
vt 0.5135 0.7659
vt 0.5400 0.5673
vt 0.5665 0.7659
vt 0.1237 0.9192
vt 0.1688 0.8682
vt 0.1688 0.9191
vt 0.5202 0.0000
vt 0.4700 0.4727
vt 0.4302 0.8173
vt 0.2313 0.7736
vt 0.4306 0.7736
vt 0.7808 0.2063
vt 0.5744 0.2500
vt 0.5741 0.2063
vt 0.5746 0.0000
vt 0.4302 0.5673
vt 0.8640 0.9485
vt 0.8905 0.7500
vt 0.9171 0.9485
vt 0.1237 0.8174
vt 0.1688 0.8682
vt 0.1237 0.8682
vt 0.2476 0.0946
vt 0.2067 0.7736
vt 0.0003 0.8173
vt 0.0000 0.7736
vt 0.7815 0.7063
vt 0.9804 0.7500
vt 0.7811 0.7500
vt 0.9804 0.5000
vt 0.9808 0.7063
vt 0.0006 0.5673
vt 0.9701 0.9485
vt 0.9171 0.9485
vt 0.9436 0.7500
vt 0.3453 0.8174
vt 0.3904 0.8682
vt 0.3453 0.8682
vt 0.8052 0.7500
vt 0.7811 0.9885
vt 0.7811 0.7501
vt 0.5176 0.8058
vt 0.4839 0.8169
vt 0.4808 0.8058
vt 0.4490 0.9210
vt 0.4839 0.9277
vt 0.4808 0.9388
vt 0.5679 0.8545
vt 0.5564 0.8871
vt 0.5564 0.8574
vt 0.4573 0.9128
vt 0.5176 0.9388
vt 0.5145 0.9277
vt 0.5411 0.8317
vt 0.5495 0.8236
vt 0.5411 0.9128
vt 0.5495 0.9210
vt 0.4490 0.8236
vt 0.4420 0.8574
vt 0.5145 0.8169
vt 0.5679 0.8901
vt 0.4573 0.8317
vt 0.2462 0.8322
vt 0.3453 0.8579
vt 0.2728 0.9281
vt 0.8882 0.2616
vt 0.8640 0.5000
vt 0.8640 0.2616
vt 0.4547 0.5673
vt 0.4306 0.8058
vt 0.4306 0.5674
vt 0.8356 0.7500
vt 0.8052 0.9884
vt 0.8640 0.2616
vt 0.8356 0.4999
vt 0.8356 0.2615
vt 0.8640 0.7500
vt 0.8356 0.9884
vt 0.9469 0.2616
vt 0.9185 0.4999
vt 0.9185 0.2615
vt 0.8052 0.4999
vt 0.8052 0.2616
vt 0.5135 0.5674
vt 0.4851 0.8057
vt 0.4851 0.5673
vt 0.7811 0.5000
vt 0.7811 0.2616
vt 0.8882 0.4999
vt 0.4547 0.8057
vt 0.0189 0.0001
vt 0.3401 0.0001
vt 0.5552 0.5673
vt 0.7811 0.5000
vt 0.2139 0.8682
vt 0.0000 0.8933
vt 0.0000 0.8612
vt 0.0166 0.8334
vt 0.0784 0.8173
vt 0.1071 0.8334
vt 0.1237 0.8612
vt 0.1071 0.9210
vt 0.0784 0.9371
vt 0.0453 0.9371
vt 0.3998 0.5672
vt 0.1128 0.5672
vt 0.2563 0.5672
vt 0.4557 0.5673
vt 0.7811 0.2500
vt 0.7811 0.7500
vt 0.1237 0.8683
vt 0.2309 0.8173
vt 0.7811 0.2500
vt 0.1688 0.8173
vt 0.2070 0.8173
vt 0.3904 0.8173
vt 0.2462 0.9133
vt 0.2309 0.8876
vt 0.2309 0.8579
vt 0.2728 0.8173
vt 0.3034 0.8173
vt 0.3300 0.8322
vt 0.3453 0.8876
vt 0.3300 0.9133
vt 0.3034 0.9281
vt 0.8640 0.5000
vt 0.8640 0.9884
vt 0.9469 0.5000
vt 0.5135 0.8057
vn 0.2588 0.0000 -0.9659
vn 0.7071 0.0000 -0.7071
vn 0.9659 0.0000 -0.2588
vn 0.9659 0.0000 0.2588
vn 0.2588 0.0000 0.9659
vn -0.2588 0.0000 0.9659
vn -0.7071 0.0000 0.7071
vn -0.9659 0.0000 0.2588
vn -0.9659 0.0000 -0.2588
vn 0.9349 0.2515 0.2505
vn -0.7071 0.0000 -0.7071
vn -0.2588 0.0000 -0.9659
vn 0.6369 0.4344 -0.6369
vn 0.0000 -1.0000 0.0000
vn -0.9264 -0.2831 -0.2482
vn -0.2482 -0.2831 0.9264
vn -0.6782 -0.2831 -0.6782
vn 0.2482 -0.2831 -0.9264
vn -0.2482 -0.2831 -0.9264
vn 0.6782 -0.2831 -0.6782
vn 0.2482 -0.2831 0.9264
vn -0.6105 0.0007 -0.7920
vn 0.7920 0.0007 0.6105
vn 0.7920 -0.0000 0.6105
vn -0.6105 0.0000 -0.7920
vn 0.0037 -1.0000 -0.0037
vn -0.7071 -0.0052 0.7071
vn 0.0000 1.0000 0.0000
vn -0.2505 0.2515 -0.9349
vn 0.2505 0.2515 -0.9349
vn 0.9349 0.2515 -0.2505
vn -0.6844 0.2515 -0.6844
vn 0.6844 0.2515 -0.6844
vn -0.9349 0.2515 -0.2505
vn -0.9349 0.2515 0.2505
vn -0.6844 0.2515 0.6844
vn -0.2505 0.2515 0.9349
vn 0.2505 0.2515 0.9349
vn 0.7071 0.0000 0.7071
vn -0.6369 0.4344 -0.6369
vn 0.9264 -0.2831 -0.2482
vn -0.9264 -0.2831 0.2482
vn 0.6782 -0.2831 0.6782
vn -0.6782 -0.2831 0.6782
vn 0.9264 -0.2831 0.2482
vn 0.6105 0.0007 -0.7920
vn -0.7920 0.0007 0.6105
vn -0.7920 0.0000 0.6105
vn 0.6105 0.0000 -0.7920
vn -0.0037 -1.0000 -0.0037
vn 0.7071 -0.0052 0.7071
vn 0.6844 0.2515 0.6844
vn 0.6369 0.4344 0.6369
vn -0.6105 0.0007 0.7920
vn 0.7920 0.0007 -0.6105
vn 0.7920 -0.0000 -0.6105
vn -0.6105 0.0000 0.7920
vn 0.0037 -1.0000 0.0037
vn -0.7071 -0.0052 -0.7071
vn -0.6369 0.4344 0.6369
vn 0.6105 0.0007 0.7920
vn -0.7920 0.0007 -0.6105
vn -0.7920 0.0000 -0.6105
vn 0.6105 0.0000 0.7920
vn -0.0037 -1.0000 0.0037
vn 0.7071 -0.0052 -0.7071
usemtl None
s off
f 13/1/1 64/2/1 12/3/1
f 65/4/2 20/5/2 64/2/2
f 21/6/3 53/7/3 20/5/3
f 54/8/4 18/9/4 53/10/4
f 17/11/5 15/12/5 16/13/5
f 62/14/6 56/15/6 15/16/6
f 57/17/7 14/18/7 56/15/7
f 1/19/8 55/20/8 14/18/8
f 63/21/9 2/22/9 55/23/9
f 19/24/10 88/25/10 51/26/10
f 3/27/11 4/28/11 2/22/11
f 5/29/12 12/30/12 4/28/12
f 2/22/9 68/31/9 55/23/9
f 55/20/8 67/32/8 14/18/8
f 14/18/7 23/33/7 56/15/7
f 56/15/6 66/34/6 15/16/6
f 15/12/5 24/35/5 16/13/5
f 18/9/4 72/36/4 53/10/4
f 12/30/12 69/37/12 4/28/12
f 12/3/1 71/38/1 70/39/1
f 53/7/3 26/40/3 20/5/3
f 4/28/11 22/41/11 2/22/11
f 64/2/13 20/5/13 8/42/13
f 23/33/6 73/43/6 66/34/6
f 69/37/11 28/44/11 22/41/11
f 67/32/7 30/45/7 23/33/7
f 70/46/12 27/47/12 69/37/12
f 26/40/2 76/48/2 71/38/2
f 68/49/8 29/50/8 67/32/8
f 66/51/5 31/52/5 24/35/5
f 34/53/14 90/54/14 35/55/14
f 28/44/15 78/56/15 74/57/15
f 73/43/16 37/58/16 38/59/16
f 27/47/17 79/60/17 28/44/17
f 76/48/18 34/61/18 75/62/18
f 75/63/19 35/64/19 27/47/19
f 33/65/20 80/66/20 76/48/20
f 73/67/21 39/68/21 31/52/21
f 8/69/22 9/70/22 71/71/22
f 8/72/23 7/73/23 6/74/23
f 20/75/24 26/76/24 8/72/24
f 71/71/25 64/77/25 8/69/25
f 7/78/26 9/79/26 6/80/26
f 26/81/27 9/82/27 7/83/27
f 10/84/28 49/85/28 52/86/28
f 5/29/29 46/87/29 13/88/29
f 13/1/30 87/89/30 65/4/30
f 21/6/31 88/90/31 54/91/31
f 5/29/32 10/92/32 11/93/32
f 65/4/33 52/94/33 21/6/33
f 63/21/34 10/92/34 3/27/34
f 63/21/35 47/95/35 86/96/35
f 57/17/36 47/95/36 1/19/36
f 62/14/37 48/97/37 57/17/37
f 17/11/38 49/98/38 62/99/38
f 18/9/39 17/11/39 16/13/39
f 77/100/3 26/40/3 72/101/3
f 16/13/39 25/102/39 18/9/39
f 26/40/2 64/2/2 20/5/2
f 4/28/40 44/103/40 2/22/40
f 24/35/39 32/104/39 25/102/39
f 32/104/4 72/36/4 25/102/4
f 28/44/9 68/31/9 22/41/9
f 81/105/41 33/65/41 77/100/41
f 78/106/42 29/50/42 74/107/42
f 39/68/43 32/104/43 31/52/43
f 36/108/44 30/45/44 29/50/44
f 40/109/45 77/110/45 32/104/45
f 45/111/46 44/112/46 69/113/46
f 44/114/47 43/115/47 22/116/47
f 2/117/48 44/114/48 22/116/48
f 69/113/49 44/112/49 4/118/49
f 43/119/50 42/120/50 45/121/50
f 43/122/51 69/123/51 22/124/51
f 19/24/52 50/125/52 17/11/52
f 16/13/53 60/126/53 18/9/53
f 61/127/54 60/128/54 24/129/54
f 60/130/55 59/131/55 25/132/55
f 18/133/56 60/130/56 25/132/56
f 24/129/57 60/128/57 16/134/57
f 59/135/58 58/136/58 61/137/58
f 25/138/59 61/139/59 24/140/59
f 56/15/60 14/18/60 84/141/60
f 70/39/1 76/48/1 75/62/1
f 84/142/61 85/143/61 23/144/61
f 84/145/62 83/146/62 82/147/62
f 14/148/63 67/149/63 84/145/63
f 23/144/64 56/150/64 84/142/64
f 83/151/65 85/152/65 82/153/65
f 23/154/66 83/155/66 67/156/66
f 100/157/6 101/158/6 89/159/6
f 81/160/14 98/161/14 41/162/14
f 79/163/14 91/164/14 78/165/14
f 39/166/14 94/167/14 95/168/14
f 79/163/14 90/54/14 99/169/14
f 36/170/14 91/164/14 92/171/14
f 39/166/14 96/172/14 40/173/14
f 36/170/14 93/174/14 37/175/14
f 80/176/14 89/177/14 34/53/14
f 40/173/14 97/178/14 81/160/14
f 38/179/14 93/174/14 94/167/14
f 41/162/14 100/180/14 80/176/14
f 109/181/14 105/182/14 102/183/14
f 96/184/9 109/185/9 97/186/9
f 93/187/1 106/188/1 94/189/1
f 98/190/7 112/191/7 100/157/7
f 89/192/5 102/193/5 90/194/5
f 97/195/8 110/196/8 98/190/8
f 94/197/12 107/198/12 95/199/12
f 90/194/39 111/200/39 99/201/39
f 91/202/3 104/203/3 92/204/3
f 99/201/4 103/205/4 91/206/4
f 95/199/11 108/207/11 96/184/11
f 92/204/2 105/208/2 93/187/2
f 13/1/1 65/4/1 64/2/1
f 65/4/2 21/6/2 20/5/2
f 21/6/3 54/91/3 53/7/3
f 54/8/4 19/24/4 18/9/4
f 17/11/5 62/99/5 15/12/5
f 62/14/6 57/17/6 56/15/6
f 57/17/7 1/19/7 14/18/7
f 1/19/8 63/21/8 55/20/8
f 63/21/9 3/27/9 2/22/9
f 19/24/10 54/8/10 88/25/10
f 3/27/11 5/29/11 4/28/11
f 5/29/12 13/88/12 12/30/12
f 2/22/9 22/41/9 68/31/9
f 55/20/8 68/49/8 67/32/8
f 14/18/7 67/32/7 23/33/7
f 56/15/6 23/33/6 66/34/6
f 15/12/5 66/51/5 24/35/5
f 18/9/4 25/102/4 72/36/4
f 12/30/12 70/46/12 69/37/12
f 12/3/1 64/2/1 71/38/1
f 53/7/3 72/101/3 26/40/3
f 4/28/11 69/37/11 22/41/11
f 23/33/6 30/45/6 73/43/6
f 69/37/11 27/47/11 28/44/11
f 67/32/7 29/50/7 30/45/7
f 70/46/12 75/63/12 27/47/12
f 26/40/2 33/65/2 76/48/2
f 68/49/8 74/107/8 29/50/8
f 66/51/5 73/67/5 31/52/5
f 34/53/14 89/177/14 90/54/14
f 28/44/15 79/60/15 78/56/15
f 73/43/16 30/45/16 37/58/16
f 27/47/17 35/64/17 79/60/17
f 76/48/18 80/66/18 34/61/18
f 75/63/19 34/209/19 35/64/19
f 33/65/20 41/210/20 80/66/20
f 73/67/21 38/211/21 39/68/21
f 8/69/22 6/212/22 9/70/22
f 8/72/23 26/76/23 7/73/23
f 26/81/27 71/213/27 9/82/27
f 52/86/28 87/214/28 46/215/28
f 46/215/28 11/216/28 10/84/28
f 10/84/28 86/217/28 47/218/28
f 47/218/28 48/219/28 10/84/28
f 49/85/28 50/220/28 51/221/28
f 51/221/28 88/222/28 52/86/28
f 52/86/28 46/215/28 10/84/28
f 10/84/28 48/219/28 49/85/28
f 49/85/28 51/221/28 52/86/28
f 5/29/29 11/93/29 46/87/29
f 13/1/30 46/223/30 87/89/30
f 21/6/31 52/94/31 88/90/31
f 5/29/32 3/27/32 10/92/32
f 65/4/33 87/89/33 52/94/33
f 63/21/34 86/224/34 10/92/34
f 63/21/35 1/19/35 47/95/35
f 57/17/36 48/97/36 47/95/36
f 62/14/37 49/225/37 48/97/37
f 17/11/38 50/125/38 49/98/38
f 18/9/39 19/24/39 17/11/39
f 77/100/3 33/65/3 26/40/3
f 16/13/39 24/35/39 25/102/39
f 26/40/2 71/38/2 64/2/2
f 24/35/39 31/52/39 32/104/39
f 32/104/4 77/110/4 72/36/4
f 28/44/9 74/57/9 68/31/9
f 81/105/41 41/210/41 33/65/41
f 78/106/42 36/108/42 29/50/42
f 39/68/43 40/109/43 32/104/43
f 36/108/44 37/58/44 30/45/44
f 40/109/45 81/226/45 77/110/45
f 45/111/46 42/227/46 44/112/46
f 44/114/47 42/228/47 43/115/47
f 43/122/51 45/229/51 69/123/51
f 19/24/52 51/26/52 50/125/52
f 61/127/54 58/230/54 60/128/54
f 60/130/55 58/231/55 59/131/55
f 25/138/59 59/232/59 61/139/59
f 70/39/1 71/38/1 76/48/1
f 84/142/61 82/233/61 85/143/61
f 84/145/62 67/149/62 83/146/62
f 23/154/66 85/234/66 83/155/66
f 100/157/6 112/191/6 101/158/6
f 81/160/14 97/178/14 98/161/14
f 79/163/14 99/169/14 91/164/14
f 39/166/14 38/179/14 94/167/14
f 79/163/14 35/55/14 90/54/14
f 36/170/14 78/165/14 91/164/14
f 39/166/14 95/168/14 96/172/14
f 36/170/14 92/171/14 93/174/14
f 80/176/14 100/180/14 89/177/14
f 40/173/14 96/172/14 97/178/14
f 38/179/14 37/175/14 93/174/14
f 41/162/14 98/161/14 100/180/14
f 102/183/14 101/235/14 112/236/14
f 112/236/14 110/237/14 109/181/14
f 109/181/14 108/238/14 107/239/14
f 107/239/14 106/240/14 105/182/14
f 105/182/14 104/241/14 103/242/14
f 103/242/14 111/243/14 105/182/14
f 102/183/14 112/236/14 109/181/14
f 109/181/14 107/239/14 105/182/14
f 105/182/14 111/243/14 102/183/14
f 96/184/9 108/207/9 109/185/9
f 93/187/1 105/208/1 106/188/1
f 98/190/7 110/196/7 112/191/7
f 89/192/5 101/244/5 102/193/5
f 97/195/8 109/245/8 110/196/8
f 94/197/12 106/246/12 107/198/12
f 90/194/39 102/193/39 111/200/39
f 91/202/3 103/247/3 104/203/3
f 99/201/4 111/200/4 103/205/4
f 95/199/11 107/198/11 108/207/11
f 92/204/2 104/203/2 105/208/2
