# Blender v2.77 (sub 0) OBJ File: 'missile_advanced.blend'
# www.blender.org
mtllib missile_advanced.mtl
o Cone_Cone.002
v 0.000000 18.520012 -1.000000
v 0.500000 18.520012 -0.866025
v 0.866025 18.520012 -0.500000
v 1.000000 18.520012 0.000000
v 0.000000 20.520012 0.000000
v 0.866025 18.520012 0.500000
v 0.500000 18.520012 0.866025
v 0.000000 18.520012 1.000000
v -0.500000 18.520012 0.866026
v -0.866025 18.520012 0.500000
v -1.000000 18.520012 0.000000
v -0.866026 18.520012 -0.499999
v -0.500001 18.520012 -0.866025
v 0.000000 13.579323 -1.000000
v 0.500000 13.579323 -0.866025
v 0.866026 13.579323 -0.500000
v 1.000000 13.579323 0.000000
v 0.866026 13.579323 0.500000
v 0.500000 13.579323 0.866025
v 0.000000 13.579323 1.000000
v -0.499999 13.579323 0.866026
v -0.866025 13.579323 0.500000
v -1.000000 13.579323 0.000000
v -0.866025 13.579323 -0.499999
v -0.500000 13.579323 -0.866025
v 0.000001 12.219648 -0.709187
v 0.354594 12.219648 -0.614174
v 0.614174 12.219648 -0.354593
v 0.709187 12.219648 0.000000
v 0.614174 12.219648 0.354593
v 0.354594 12.219648 0.614174
v 0.000001 12.219648 0.709187
v -0.354593 12.219648 0.614174
v -0.614173 12.219648 0.354594
v -0.709186 12.219648 0.000000
v -0.614173 12.219648 -0.354593
v -0.354593 12.219648 -0.614173
v 0.000007 5.031765 -0.709187
v 0.354601 5.031765 -0.614174
v 0.614181 5.031765 -0.354593
v 0.709194 5.031765 0.000000
v 0.614181 5.031765 0.354593
v 0.354601 5.031765 0.614174
v 0.000007 5.031765 0.709187
v -0.354586 5.031765 0.614174
v -0.614166 5.031765 0.354594
v -0.709179 5.031765 0.000000
v -0.614166 5.031765 -0.354593
v -0.354586 5.031765 -0.614173
v 0.000010 1.221333 -0.709187
v 0.354604 1.221333 -0.614174
v 0.614184 1.221333 -0.354593
v 0.709197 1.221333 0.000000
v 0.614184 1.221333 0.354593
v 0.354604 1.221333 0.614174
v 0.000010 1.221333 0.709187
v -0.354583 1.221333 0.614174
v -0.614163 1.221333 0.354594
v -0.709176 1.221333 0.000000
v -0.614163 1.221333 -0.354593
v -0.354583 1.221333 -0.614173
v 0.000010 -0.017788 -0.434630
v 0.217325 -0.017788 -0.376400
v 0.376411 -0.017788 -0.217315
v 0.434640 -0.017788 0.000000
v 0.376410 -0.017788 0.217315
v 0.217325 -0.017788 0.376401
v 0.000010 -0.017788 0.434630
v -0.217305 -0.017788 0.376401
v -0.376391 -0.017788 0.217315
v -0.434620 -0.017788 0.000000
v -0.376391 -0.017788 -0.217315
v -0.217305 -0.017788 -0.376400
v -1.126587 4.079157 1.256386
v -1.256377 4.079157 1.126596
v -1.126585 2.173941 1.256386
v -1.256375 2.173941 1.126596
v -1.256378 4.079157 -1.126594
v -1.126588 4.079157 -1.256385
v -1.256377 2.173941 -1.126594
v -1.126587 2.173941 -1.256385
v 1.126603 4.079157 -1.256385
v 1.256394 4.079157 -1.126595
v 1.126605 2.173941 -1.256385
v 1.256395 2.173941 -1.126595
v 1.256393 4.079157 1.126595
v 1.126603 4.079157 1.256385
v 1.256395 2.173941 1.126595
v 1.126605 2.173941 1.256385
v 0.000010 -0.017788 -0.274583
v 0.137302 -0.017788 -0.237796
v 0.237806 -0.017788 -0.137291
v 0.274593 -0.017788 0.000000
v 0.237806 -0.017788 0.137292
v 0.137302 -0.017788 0.237796
v 0.000010 -0.017788 0.274583
v -0.137282 -0.017788 0.237796
v -0.237786 -0.017788 0.137292
v -0.274573 -0.017788 0.000000
v -0.237786 -0.017788 -0.137291
v -0.137282 -0.017788 -0.237796
v 0.000004 11.082842 -0.274583
v 0.137296 11.082842 -0.237796
v 0.237800 11.082842 -0.137291
v 0.274587 11.082842 0.000000
v 0.237800 11.082842 0.137292
v 0.137296 11.082842 0.237796
v 0.000004 11.082842 0.274583
v -0.137287 11.082842 0.237796
v -0.237792 11.082842 0.137292
v -0.274579 11.082842 0.000000
v -0.237792 11.082842 -0.137291
v -0.137288 11.082842 -0.237796
v 0.000004 11.082842 -0.274583
v 0.137296 11.082842 -0.237796
v 0.237800 11.082842 -0.137291
v 0.274587 11.082842 0.000000
v 0.237800 11.082842 0.137292
v 0.137296 11.082842 0.237796
v 0.000004 11.082842 0.274583
v -0.137287 11.082842 0.237796
v -0.237792 11.082842 0.137292
v -0.274579 11.082842 0.000000
v -0.237792 11.082842 -0.137291
v -0.137288 11.082842 -0.237796
vt 0.3785 0.9037
vt 0.3288 1.0000
vt 0.3336 0.9039
vt 0.2874 0.9038
vt 0.2523 0.9033
vt 0.1262 0.9037
vt 0.0765 1.0000
vt 0.0813 0.9039
vt 0.0351 0.9038
vt 0.0000 0.9033
vt 0.5046 0.9037
vt 0.4550 1.0000
vt 0.4597 0.9039
vt 0.4135 0.9038
vt 0.3785 0.9033
vt 0.2523 0.9037
vt 0.2026 1.0000
vt 0.2074 0.9039
vt 0.1612 0.9038
vt 0.1262 0.9033
vt 0.5046 0.6631
vt 0.4135 0.6631
vt 0.4583 0.5967
vt 0.4597 0.6633
vt 0.1262 0.6631
vt 0.2074 0.6633
vt 0.2874 0.6631
vt 0.0351 0.6631
vt 0.1612 0.6631
vt 0.2523 0.6631
vt 0.3336 0.6633
vt 0.0813 0.6633
vt 0.3785 0.6631
vt 0.3322 0.5967
vt 0.3640 0.2464
vt 0.3640 0.5965
vt 0.0799 0.5967
vt 0.1262 0.6627
vt 0.1733 0.5966
vt 0.3785 0.6627
vt 0.4256 0.5966
vt 0.0222 0.5962
vt 0.0471 0.5966
vt 0.2523 0.6627
vt 0.2994 0.5966
vt 0.2060 0.5967
vt 0.2379 0.5965
vt 0.4902 0.5965
vt 0.1117 0.5965
vt 0.7341 0.0000
vt 0.6432 0.1390
vt 0.6432 0.0462
vt 0.4583 0.2466
vt 0.0799 0.2466
vt 0.1484 0.5962
vt 0.1733 0.2465
vt 0.3322 0.2466
vt 0.4007 0.5962
vt 0.4256 0.2465
vt 0.0222 0.2461
vt 0.0471 0.2465
vt 0.2746 0.5962
vt 0.2994 0.2465
vt 0.2379 0.2464
vt 0.4902 0.2464
vt 0.1117 0.2464
vt 0.2060 0.2466
vt 0.0799 0.0610
vt 0.0981 0.0002
vt 0.1117 0.0608
vt 0.3640 0.0608
vt 0.4332 0.1637
vt 0.4496 0.1638
vt 0.9125 0.1856
vt 0.8251 0.3244
vt 0.8251 0.2316
vt 0.1484 0.2461
vt 0.1733 0.0609
vt 0.9125 0.3712
vt 1.0000 0.2324
vt 1.0000 0.3252
vt 0.4007 0.2461
vt 0.4256 0.0609
vt 0.0222 0.0605
vt 0.0471 0.0609
vt 0.2746 0.2461
vt 0.2994 0.0609
vt 0.2379 0.0608
vt 0.4902 0.0608
vt 0.6432 0.3862
vt 0.6573 0.3951
vt 0.6432 0.3971
vt 0.2060 0.0610
vt 0.1846 0.0002
vt 0.2047 0.0003
vt 0.3309 0.0003
vt 0.3504 0.0002
vt 0.4570 0.0003
vt 0.4583 0.0610
vt 0.0786 0.0003
vt 0.1484 0.0605
vt 0.3322 0.0610
vt 0.3108 0.0002
vt 0.4217 0.0000
vt 0.4370 0.0002
vt 0.0585 0.0002
vt 0.2746 0.0605
vt 0.2242 0.0002
vt 0.4765 0.0002
vt 0.4496 0.0710
vt 0.8251 0.0000
vt 0.7341 0.1390
vt 0.7341 0.0462
vt 0.9125 0.1856
vt 0.8251 0.0460
vt 0.9125 0.0000
vt 0.7341 0.3712
vt 0.7592 0.4199
vt 0.7425 0.4199
vt 0.1797 0.1631
vt 0.1960 0.0704
vt 0.1960 0.1632
vt 0.7676 0.4199
vt 0.7927 0.3712
vt 0.8011 0.4199
vt 0.9125 0.0000
vt 1.0000 0.1396
vt 0.9125 0.1856
vt 0.3076 0.1639
vt 0.3239 0.0712
vt 0.3239 0.1640
vt 0.8011 0.4199
vt 0.8262 0.3712
vt 0.8346 0.4199
vt 0.7341 0.3712
vt 0.6432 0.2318
vt 0.7341 0.1856
vt 0.0542 0.1636
vt 0.0706 0.0709
vt 0.0706 0.1637
vt 0.6767 0.4608
vt 0.6515 0.4121
vt 0.6683 0.4121
vt 0.7341 0.1856
vt 0.8251 0.3249
vt 0.7341 0.3712
vt 0.0000 0.0000
vt 0.0000 0.0000
vt 0.0000 0.0000
vt 0.6712 0.4121
vt 0.6879 0.4046
vt 0.6917 0.4121
vt 0.7095 0.3767
vt 0.6879 0.3787
vt 0.6917 0.3712
vt 0.7198 0.3971
vt 0.7057 0.3882
vt 0.7198 0.3862
vt 0.6638 0.3822
vt 0.6573 0.3882
vt 0.6534 0.4066
vt 0.6750 0.4046
vt 0.6992 0.3822
vt 0.6992 0.4011
vt 0.7057 0.3951
vt 0.6534 0.3767
vt 0.6750 0.3787
vt 0.6638 0.4011
vt 0.7095 0.4066
vt 0.6712 0.3712
vt 0.6767 0.4216
vt 0.7250 0.4285
vt 0.7073 0.4379
vt 0.0000 0.0000
vt 0.0000 0.0000
vt 0.0000 0.0000
vt 0.0000 0.0000
vt 0.0000 0.0000
vt 0.0000 0.0000
vt 0.0000 0.0000
vt 0.0000 0.0000
vt 0.0000 0.0000
vt 0.0000 0.0000
vt 0.0000 0.0000
vt 0.0000 0.0000
vt 0.0000 0.0000
vt 0.0000 0.0000
vt 0.0000 0.0000
vt 0.0000 0.0000
vt 0.0000 0.0000
vt 0.0000 0.0000
vt 0.0000 0.0000
vt 0.0000 0.0000
vt 0.0000 0.0000
vt 0.5962 0.5408
vt 0.6085 0.0001
vt 0.6085 0.5408
vt 0.5835 0.5408
vt 0.5962 0.0002
vt 0.5739 0.0000
vt 0.5835 0.0001
vt 0.5516 0.0000
vt 0.5393 0.5407
vt 0.5393 0.0001
vt 0.5643 0.0000
vt 0.5516 0.5407
vt 0.5739 0.0002
vt 0.5643 0.5407
vt 0.6209 0.0000
vt 0.6085 0.5407
vt 0.6085 0.0001
vt 0.6335 0.0000
vt 0.6209 0.5407
vt 0.6432 0.0002
vt 0.6335 0.5407
vt 0.5169 0.0000
vt 0.5046 0.5407
vt 0.5046 0.0001
vt 0.5296 0.0000
vt 0.5169 0.5407
vt 0.5393 0.0002
vt 0.5296 0.5407
vt 0.0000 0.6627
vt 0.7341 0.1856
vt 0.9125 0.3712
vt 0.9125 0.1856
vt 0.4007 0.0606
vt 0.1694 0.0000
vt 0.0432 0.0000
vt 0.2956 0.0000
vt 0.4332 0.0710
vt 0.8251 0.1856
vt 0.8251 0.1388
vt 0.7676 0.3712
vt 0.1797 0.0703
vt 0.7760 0.3712
vt 1.0000 0.0468
vt 0.3076 0.0711
vt 0.8095 0.3712
vt 0.6432 0.3246
vt 0.0542 0.0708
vt 0.6432 0.4608
vt 0.8251 0.2321
vt 0.6944 0.4379
vt 0.6831 0.4345
vt 0.6767 0.4285
vt 0.6831 0.4156
vt 0.6944 0.4121
vt 0.7073 0.4121
vt 0.7186 0.4156
vt 0.7250 0.4216
vt 0.7186 0.4345
vt 0.5739 0.5407
vt 0.5739 0.5408
vt 0.6432 0.5408
vt 0.5393 0.5408
vn 0.2331 0.4349 -0.8698
vn 0.6367 0.4349 -0.6367
vn 0.8698 0.4349 -0.2331
vn 0.8698 0.4349 0.2331
vn 0.6367 0.4349 0.6367
vn 0.2331 0.4349 0.8698
vn -0.2331 0.4349 0.8698
vn -0.6367 0.4349 0.6367
vn -0.8698 0.4349 0.2331
vn -0.8698 0.4349 -0.2331
vn -0.6367 0.4349 -0.6367
vn -0.2331 0.4349 -0.8698
vn -0.2588 -0.0000 0.9659
vn -0.6925 -0.2023 0.6925
vn -0.9659 -0.0000 0.2588
vn 0.9659 0.0000 0.2588
vn -0.7071 -0.0000 -0.7071
vn 0.9659 0.0000 -0.2588
vn 0.2588 0.0000 0.9659
vn -0.7071 -0.0000 0.7071
vn -0.2588 -0.0000 -0.9659
vn -0.9659 -0.0000 -0.2588
vn 0.7071 0.0000 -0.7071
vn 0.7071 0.0000 0.7071
vn 0.2588 0.0000 -0.9659
vn 0.6925 -0.2023 0.6925
vn -0.2535 -0.2023 -0.9459
vn 0.6925 -0.2023 -0.6925
vn -0.9459 -0.2023 0.2535
vn 0.2535 -0.2023 0.9459
vn 0.9459 -0.2023 -0.2535
vn -0.9459 -0.2023 -0.2535
vn -0.2535 -0.2023 0.9459
vn 0.9459 -0.2023 0.2535
vn -0.6925 -0.2023 -0.6925
vn 0.2535 -0.2023 -0.9459
vn 0.6395 0.0000 -0.7688
vn 0.9445 -0.2093 0.2531
vn -0.4877 0.7241 0.4877
vn 0.7688 0.0000 -0.6395
vn -0.6395 -0.0000 -0.7688
vn 0.0000 -1.0000 -0.0000
vn -0.6914 -0.2093 -0.6914
vn 0.2531 -0.2093 -0.9445
vn -0.6914 -0.2093 0.6914
vn 0.6914 -0.2093 0.6914
vn -0.2531 -0.2093 -0.9445
vn 0.6914 -0.2093 -0.6914
vn -0.9445 -0.2093 0.2531
vn 0.2531 -0.2093 0.9445
vn 0.9445 -0.2093 -0.2531
vn -0.9445 -0.2093 -0.2531
vn -0.2531 -0.2093 0.9445
vn -0.7688 -0.0000 -0.6395
vn 0.6395 0.0000 0.7688
vn -0.4877 -0.7241 0.4877
vn -0.4877 -0.7241 -0.4877
vn -0.4877 0.7241 -0.4877
vn -0.7688 -0.0000 0.6395
vn 0.4877 -0.7241 -0.4877
vn 0.4877 0.7241 -0.4877
vn 0.7688 0.0000 0.6395
vn 0.4877 -0.7241 0.4877
vn 0.4877 0.7241 0.4877
vn -0.6395 -0.0000 0.7688
vn 0.0000 0.0000 1.0000
usemtl None
s off
f 1/1/1 5/2/1 2/3/1
f 2/3/2 5/2/2 3/4/2
f 3/4/3 5/2/3 4/5/3
f 4/6/4 5/7/4 6/8/4
f 6/8/5 5/7/5 7/9/5
f 7/9/6 5/7/6 8/10/6
f 8/11/7 5/12/7 9/13/7
f 9/13/8 5/12/8 10/14/8
f 10/14/9 5/12/9 11/15/9
f 11/16/10 5/17/10 12/18/10
f 12/18/11 5/17/11 13/19/11
f 13/19/12 5/17/12 1/20/12
f 9/13/13 20/21/13 8/11/13
f 22/22/14 33/23/14 21/24/14
f 11/15/15 22/22/15 10/14/15
f 6/8/16 17/25/16 4/6/16
f 13/19/17 24/26/17 12/18/17
f 4/5/18 16/27/18 3/4/18
f 8/10/19 19/28/19 7/9/19
f 10/14/20 21/24/20 9/13/20
f 1/20/21 25/29/21 13/19/21
f 12/18/22 23/30/22 11/16/22
f 3/4/23 15/31/23 2/3/23
f 7/9/24 18/32/24 6/8/24
f 2/3/25 14/33/25 1/1/25
f 27/34/25 38/35/25 26/36/25
f 19/28/26 30/37/26 18/32/26
f 14/38/27 37/39/27 25/29/27
f 16/27/28 27/34/28 15/31/28
f 23/40/29 34/41/29 22/22/29
f 19/28/30 32/42/30 31/43/30
f 17/44/31 28/45/31 16/27/31
f 23/30/32 36/46/32 35/47/32
f 21/24/33 32/48/33 20/21/33
f 18/32/34 29/49/34 17/25/34
f 25/29/35 36/46/35 24/26/35
f 15/31/36 26/36/36 14/33/36
f 49/50/37 81/51/37 79/52/37
f 34/41/20 45/53/20 33/23/20
f 31/43/24 42/54/24 30/37/24
f 26/55/21 49/56/21 37/39/21
f 28/45/23 39/57/23 27/34/23
f 35/58/15 46/59/15 34/41/15
f 31/43/19 44/60/19 43/61/19
f 29/62/18 40/63/18 28/45/18
f 36/46/22 47/64/22 35/47/22
f 32/48/13 45/53/13 44/65/13
f 30/37/16 41/66/16 29/49/16
f 37/39/17 48/67/17 36/46/17
f 54/68/38 65/69/38 53/70/38
f 39/57/25 50/71/25 38/35/25
f 45/53/39 75/72/39 74/73/39
f 54/74/40 86/75/40 88/76/40
f 38/77/21 61/78/21 49/56/21
f 51/79/41 82/80/41 84/81/41
f 47/82/15 58/83/15 46/59/15
f 43/61/19 56/84/19 55/85/19
f 41/86/18 52/87/18 40/63/18
f 48/67/22 59/88/22 47/64/22
f 45/53/13 56/89/13 44/65/13
f 42/54/16 53/70/16 41/66/16
f 69/90/42 96/91/42 68/92/42
f 60/93/43 73/94/43 72/95/43
f 50/71/44 63/96/44 62/97/44
f 58/83/45 69/98/45 57/99/45
f 55/85/46 66/100/46 54/68/46
f 50/101/47 73/94/47 61/78/47
f 51/102/48 64/103/48 63/96/48
f 58/83/49 71/104/49 70/105/49
f 56/84/50 67/106/50 55/85/50
f 53/107/51 64/103/51 52/87/51
f 59/88/52 72/95/52 71/108/52
f 57/99/53 68/109/53 56/89/53
f 75/72/20 76/110/20 74/73/20
f 46/111/54 77/112/54 75/113/54
f 45/114/55 76/115/55 57/116/55
f 58/117/56 76/118/56 77/119/56
f 79/120/17 80/121/17 78/122/17
f 60/123/57 81/124/57 61/125/57
f 49/56/58 78/122/58 48/67/58
f 48/126/59 80/127/59 60/128/59
f 83/129/23 84/130/23 82/131/23
f 51/132/60 85/133/60 52/134/60
f 40/63/61 82/131/61 39/57/61
f 52/135/62 83/136/62 40/137/62
f 87/138/24 88/139/24 86/140/24
f 55/141/63 88/142/63 89/143/63
f 42/54/64 87/138/64 86/140/64
f 55/144/65 87/145/65 43/146/65
f 115/147/66 104/148/66 103/149/66
f 66/150/42 93/151/42 65/152/42
f 73/153/42 100/154/42 72/155/42
f 63/156/42 90/157/42 62/158/42
f 69/90/42 98/159/42 97/160/42
f 67/161/42 94/162/42 66/150/42
f 62/158/42 101/163/42 73/153/42
f 63/156/42 92/164/42 91/165/42
f 70/166/42 99/167/42 98/159/42
f 68/92/42 95/168/42 67/161/42
f 65/152/42 92/164/42 64/169/42
f 71/170/42 100/154/42 99/167/42
f 105/171/42 111/172/42 113/173/42
f 122/174/66 111/175/66 110/176/66
f 119/177/66 108/178/66 107/179/66
f 116/180/66 105/181/66 104/148/66
f 123/182/66 112/183/66 111/175/66
f 120/184/66 109/185/66 108/178/66
f 117/186/66 106/187/66 105/181/66
f 124/188/66 113/189/66 112/183/66
f 114/190/66 103/149/66 102/191/66
f 121/192/66 110/176/66 109/185/66
f 118/193/66 107/179/66 106/187/66
f 125/194/66 102/191/66 113/189/66
f 91/195/13 114/196/13 90/197/13
f 92/198/20 115/199/20 91/195/20
f 92/198/15 117/200/15 116/201/15
f 94/202/22 117/203/22 93/204/22
f 95/205/17 118/206/17 94/202/17
f 96/207/21 119/208/21 95/205/21
f 97/209/25 120/210/25 96/211/25
f 98/212/23 121/213/23 97/209/23
f 99/214/18 122/215/18 98/212/18
f 100/216/16 123/217/16 99/218/16
f 101/219/24 124/220/24 100/216/24
f 90/221/19 125/222/19 101/219/19
f 9/13/13 21/24/13 20/21/13
f 22/22/14 34/41/14 33/23/14
f 11/15/15 23/40/15 22/22/15
f 6/8/16 18/32/16 17/25/16
f 13/19/17 25/29/17 24/26/17
f 4/5/18 17/44/18 16/27/18
f 8/10/19 20/223/19 19/28/19
f 10/14/20 22/22/20 21/24/20
f 1/20/21 14/38/21 25/29/21
f 12/18/22 24/26/22 23/30/22
f 3/4/23 16/27/23 15/31/23
f 7/9/24 19/28/24 18/32/24
f 2/3/25 15/31/25 14/33/25
f 27/34/25 39/57/25 38/35/25
f 19/28/26 31/43/26 30/37/26
f 14/38/27 26/55/27 37/39/27
f 16/27/28 28/45/28 27/34/28
f 23/40/29 35/58/29 34/41/29
f 19/28/30 20/223/30 32/42/30
f 17/44/31 29/62/31 28/45/31
f 23/30/32 24/26/32 36/46/32
f 21/24/33 33/23/33 32/48/33
f 18/32/34 30/37/34 29/49/34
f 25/29/35 37/39/35 36/46/35
f 15/31/36 27/34/36 26/36/36
f 49/50/37 61/224/37 81/51/37
f 34/41/20 46/59/20 45/53/20
f 31/43/24 43/61/24 42/54/24
f 26/55/21 38/77/21 49/56/21
f 28/45/23 40/63/23 39/57/23
f 35/58/15 47/82/15 46/59/15
f 31/43/19 32/42/19 44/60/19
f 29/62/18 41/86/18 40/63/18
f 36/46/22 48/67/22 47/64/22
f 32/48/13 33/23/13 45/53/13
f 30/37/16 42/54/16 41/66/16
f 37/39/17 49/56/17 48/67/17
f 54/68/38 66/100/38 65/69/38
f 39/57/25 51/102/25 50/71/25
f 45/53/39 46/59/39 75/72/39
f 54/74/40 42/225/40 86/75/40
f 38/77/21 50/101/21 61/78/21
f 51/79/41 39/226/41 82/80/41
f 47/82/15 59/227/15 58/83/15
f 43/61/19 44/60/19 56/84/19
f 41/86/18 53/107/18 52/87/18
f 48/67/22 60/93/22 59/88/22
f 45/53/13 57/99/13 56/89/13
f 42/54/16 54/68/16 53/70/16
f 69/90/42 97/160/42 96/91/42
f 60/93/43 61/78/43 73/94/43
f 50/71/44 51/102/44 63/96/44
f 58/83/45 70/105/45 69/98/45
f 55/85/46 67/106/46 66/100/46
f 50/101/47 62/228/47 73/94/47
f 51/102/48 52/87/48 64/103/48
f 58/83/49 59/227/49 71/104/49
f 56/84/50 68/229/50 67/106/50
f 53/107/51 65/230/51 64/103/51
f 59/88/52 60/93/52 72/95/52
f 57/99/53 69/98/53 68/109/53
f 75/72/20 77/231/20 76/110/20
f 46/111/54 58/232/54 77/112/54
f 45/114/55 74/233/55 76/115/55
f 58/117/56 57/234/56 76/118/56
f 79/120/17 81/235/17 80/121/17
f 60/123/57 80/236/57 81/124/57
f 49/56/58 79/120/58 78/122/58
f 48/126/59 78/237/59 80/127/59
f 83/129/23 85/238/23 84/130/23
f 51/132/60 84/239/60 85/133/60
f 40/63/61 83/129/61 82/131/61
f 52/135/62 85/240/62 83/136/62
f 87/138/24 89/241/24 88/139/24
f 55/141/63 54/242/63 88/142/63
f 42/54/64 43/61/64 87/138/64
f 55/144/65 89/243/65 87/145/65
f 115/147/66 116/180/66 104/148/66
f 66/150/42 94/162/42 93/151/42
f 73/153/42 101/163/42 100/154/42
f 63/156/42 91/165/42 90/157/42
f 69/90/42 70/166/42 98/159/42
f 67/161/42 95/168/42 94/162/42
f 62/158/42 90/157/42 101/163/42
f 63/156/42 64/169/42 92/164/42
f 70/166/42 71/170/42 99/167/42
f 68/92/42 96/91/42 95/168/42
f 65/152/42 93/151/42 92/164/42
f 71/170/42 72/155/42 100/154/42
f 113/173/42 102/244/42 103/245/42
f 103/245/42 104/246/42 105/171/42
f 105/171/42 106/247/42 107/248/42
f 107/248/42 108/249/42 109/250/42
f 109/250/42 110/251/42 111/172/42
f 111/172/42 112/252/42 113/173/42
f 113/173/42 103/245/42 105/171/42
f 105/171/42 107/248/42 109/250/42
f 109/250/42 111/172/42 105/171/42
f 122/174/66 123/182/66 111/175/66
f 119/177/66 120/184/66 108/178/66
f 116/180/66 117/186/66 105/181/66
f 123/182/66 124/188/66 112/183/66
f 120/184/66 121/192/66 109/185/66
f 117/186/66 118/193/66 106/187/66
f 124/188/66 125/194/66 113/189/66
f 114/190/66 115/147/66 103/149/66
f 121/192/66 122/174/66 110/176/66
f 118/193/66 119/177/66 107/179/66
f 125/194/66 114/190/66 102/191/66
f 91/195/13 115/199/13 114/196/13
f 92/198/20 116/201/20 115/199/20
f 92/198/15 93/253/15 117/200/15
f 94/202/22 118/206/22 117/203/22
f 95/205/17 119/208/17 118/206/17
f 96/207/21 120/254/21 119/208/21
f 97/209/25 121/213/25 120/210/25
f 98/212/23 122/215/23 121/213/23
f 99/214/18 123/255/18 122/215/18
f 100/216/16 124/220/16 123/217/16
f 101/219/24 125/222/24 124/220/24
f 90/221/19 114/256/19 125/222/19
